<mxfile host="app.diagrams.net" agent="Mozilla/5.0 (Windows NT 10.0; Win64; x64) AppleWebKit/537.36 (KHTML, like Gecko) Chrome/134.0.0.0 Safari/537.36" version="26.1.1" pages="2">
  <diagram name="Version 1" id="7_cslGiallkGWCSlAIUD">
    <mxGraphModel grid="1" page="1" gridSize="10" guides="1" tooltips="1" connect="1" arrows="1" fold="1" pageScale="1" pageWidth="850" pageHeight="1100" math="0" shadow="0">
      <root>
        <mxCell id="0" />
        <mxCell id="1" parent="0" />
        <mxCell id="uRtoHPOxJHKWPP2pSyf5-1" value="Actor" style="shape=umlActor;verticalLabelPosition=bottom;verticalAlign=top;html=1;outlineConnect=0;" parent="1" vertex="1">
          <mxGeometry x="160" y="130" width="30" height="60" as="geometry" />
        </mxCell>
        <mxCell id="uRtoHPOxJHKWPP2pSyf5-2" value="User" style="shape=umlActor;verticalLabelPosition=bottom;verticalAlign=top;html=1;outlineConnect=0;" parent="1" vertex="1">
          <mxGeometry x="140" y="470" width="30" height="60" as="geometry" />
        </mxCell>
        <mxCell id="uRtoHPOxJHKWPP2pSyf5-5" value="Study Activity (Sentence Constructor)" style="rounded=0;whiteSpace=wrap;html=1;" parent="1" vertex="1">
          <mxGeometry x="540" y="160" width="120" height="60" as="geometry" />
        </mxCell>
        <mxCell id="uRtoHPOxJHKWPP2pSyf5-10" value="" style="group" parent="1" vertex="1" connectable="0">
          <mxGeometry x="605" y="458" width="130" height="100" as="geometry" />
        </mxCell>
        <mxCell id="uRtoHPOxJHKWPP2pSyf5-6" value="Model API" style="rounded=0;whiteSpace=wrap;html=1;align=center;" parent="uRtoHPOxJHKWPP2pSyf5-10" vertex="1">
          <mxGeometry width="130" height="100" as="geometry" />
        </mxCell>
        <mxCell id="uRtoHPOxJHKWPP2pSyf5-8" value="Generation" style="rounded=1;whiteSpace=wrap;html=1;" parent="uRtoHPOxJHKWPP2pSyf5-10" vertex="1">
          <mxGeometry y="60" width="125" height="30" as="geometry" />
        </mxCell>
        <mxCell id="uRtoHPOxJHKWPP2pSyf5-14" value="" style="endArrow=classic;html=1;rounded=0;" parent="1" edge="1">
          <mxGeometry width="50" height="50" relative="1" as="geometry">
            <mxPoint x="170" y="507.5" as="sourcePoint" />
            <mxPoint x="350" y="507.5" as="targetPoint" />
          </mxGeometry>
        </mxCell>
        <mxCell id="uRtoHPOxJHKWPP2pSyf5-15" value="Query" style="text;html=1;align=center;verticalAlign=middle;resizable=0;points=[];autosize=1;strokeColor=none;fillColor=none;" parent="1" vertex="1">
          <mxGeometry x="220" y="470" width="60" height="30" as="geometry" />
        </mxCell>
        <mxCell id="uRtoHPOxJHKWPP2pSyf5-16" value="" style="endArrow=classic;html=1;rounded=0;entryX=1;entryY=1;entryDx=0;entryDy=0;entryPerimeter=0;exitX=0;exitY=0.5;exitDx=0;exitDy=0;" parent="1" target="uRtoHPOxJHKWPP2pSyf5-2" edge="1" source="uRtoHPOxJHKWPP2pSyf5-28">
          <mxGeometry width="50" height="50" relative="1" as="geometry">
            <mxPoint x="640" y="630" as="sourcePoint" />
            <mxPoint x="250" y="530" as="targetPoint" />
            <Array as="points">
              <mxPoint x="170" y="580" />
            </Array>
          </mxGeometry>
        </mxCell>
        <mxCell id="uRtoHPOxJHKWPP2pSyf5-17" value="Response" style="text;html=1;align=center;verticalAlign=middle;resizable=0;points=[];autosize=1;strokeColor=none;fillColor=none;rotation=0;" parent="1" vertex="1">
          <mxGeometry x="370" y="550" width="80" height="30" as="geometry" />
        </mxCell>
        <mxCell id="nk7b5BX92iTHyn41FzLB-6" value="" style="edgeStyle=orthogonalEdgeStyle;rounded=0;orthogonalLoop=1;jettySize=auto;html=1;" edge="1" parent="1" source="uRtoHPOxJHKWPP2pSyf5-18" target="nk7b5BX92iTHyn41FzLB-3">
          <mxGeometry relative="1" as="geometry" />
        </mxCell>
        <mxCell id="uRtoHPOxJHKWPP2pSyf5-18" value="RAG" style="rounded=1;whiteSpace=wrap;html=1;" parent="1" vertex="1">
          <mxGeometry x="350" y="478" width="120" height="60" as="geometry" />
        </mxCell>
        <mxCell id="uRtoHPOxJHKWPP2pSyf5-19" value="Vector Database" style="shape=cylinder3;whiteSpace=wrap;html=1;boundedLbl=1;backgroundOutline=1;size=15;" parent="1" vertex="1">
          <mxGeometry x="370" y="330" width="80" height="80" as="geometry" />
        </mxCell>
        <mxCell id="uRtoHPOxJHKWPP2pSyf5-20" value="Internet" style="ellipse;shape=cloud;whiteSpace=wrap;html=1;" parent="1" vertex="1">
          <mxGeometry x="480" y="320" width="120" height="80" as="geometry" />
        </mxCell>
        <mxCell id="uRtoHPOxJHKWPP2pSyf5-24" style="edgeStyle=orthogonalEdgeStyle;rounded=0;orthogonalLoop=1;jettySize=auto;html=1;entryX=0.5;entryY=1;entryDx=0;entryDy=0;entryPerimeter=0;" parent="1" source="uRtoHPOxJHKWPP2pSyf5-18" target="uRtoHPOxJHKWPP2pSyf5-19" edge="1">
          <mxGeometry relative="1" as="geometry" />
        </mxCell>
        <mxCell id="uRtoHPOxJHKWPP2pSyf5-25" style="edgeStyle=orthogonalEdgeStyle;rounded=0;orthogonalLoop=1;jettySize=auto;html=1;exitX=0.75;exitY=0;exitDx=0;exitDy=0;entryX=0.55;entryY=0.95;entryDx=0;entryDy=0;entryPerimeter=0;" parent="1" source="uRtoHPOxJHKWPP2pSyf5-18" target="uRtoHPOxJHKWPP2pSyf5-20" edge="1">
          <mxGeometry relative="1" as="geometry" />
        </mxCell>
        <mxCell id="uRtoHPOxJHKWPP2pSyf5-27" value="Input Guardrail" style="rounded=1;whiteSpace=wrap;html=1;" parent="1" vertex="1">
          <mxGeometry x="620" y="420" width="100" height="30" as="geometry" />
        </mxCell>
        <mxCell id="uRtoHPOxJHKWPP2pSyf5-28" value="Output Guardrail" style="rounded=1;whiteSpace=wrap;html=1;" parent="1" vertex="1">
          <mxGeometry x="620" y="570" width="100" height="30" as="geometry" />
        </mxCell>
        <mxCell id="nk7b5BX92iTHyn41FzLB-10" value="" style="edgeStyle=orthogonalEdgeStyle;rounded=0;orthogonalLoop=1;jettySize=auto;html=1;" edge="1" parent="1" source="nk7b5BX92iTHyn41FzLB-3" target="uRtoHPOxJHKWPP2pSyf5-8">
          <mxGeometry relative="1" as="geometry" />
        </mxCell>
        <mxCell id="nk7b5BX92iTHyn41FzLB-3" value="Prompt Cache" style="rounded=0;whiteSpace=wrap;html=1;" vertex="1" parent="1">
          <mxGeometry x="500" y="483" width="60" height="50" as="geometry" />
        </mxCell>
      </root>
    </mxGraphModel>
  </diagram>
  <diagram id="vs7vMND33lxnxkmVzPL-" name="Version 2">
    <mxGraphModel dx="1434" dy="738" grid="1" gridSize="10" guides="1" tooltips="1" connect="1" arrows="1" fold="1" page="1" pageScale="1" pageWidth="850" pageHeight="1100" math="0" shadow="0">
      <root>
        <mxCell id="0" />
        <mxCell id="1" parent="0" />
        <mxCell id="M5peR9HVMpolWC5q5Tus-3" value="" style="edgeStyle=orthogonalEdgeStyle;rounded=0;orthogonalLoop=1;jettySize=auto;html=1;" edge="1" parent="1" source="M5peR9HVMpolWC5q5Tus-1" target="M5peR9HVMpolWC5q5Tus-2">
          <mxGeometry relative="1" as="geometry" />
        </mxCell>
        <mxCell id="M5peR9HVMpolWC5q5Tus-1" value="User" style="shape=umlActor;verticalLabelPosition=bottom;verticalAlign=top;html=1;outlineConnect=0;" vertex="1" parent="1">
          <mxGeometry x="110" y="440" width="30" height="60" as="geometry" />
        </mxCell>
        <mxCell id="M5peR9HVMpolWC5q5Tus-21" value="" style="edgeStyle=orthogonalEdgeStyle;rounded=0;orthogonalLoop=1;jettySize=auto;html=1;" edge="1" parent="1" source="M5peR9HVMpolWC5q5Tus-2" target="M5peR9HVMpolWC5q5Tus-10">
          <mxGeometry relative="1" as="geometry" />
        </mxCell>
        <mxCell id="M5peR9HVMpolWC5q5Tus-24" value="" style="edgeStyle=orthogonalEdgeStyle;rounded=0;orthogonalLoop=1;jettySize=auto;html=1;" edge="1" parent="1" source="M5peR9HVMpolWC5q5Tus-2" target="M5peR9HVMpolWC5q5Tus-17">
          <mxGeometry relative="1" as="geometry" />
        </mxCell>
        <mxCell id="M5peR9HVMpolWC5q5Tus-2" value="Learning Engine" style="rounded=1;whiteSpace=wrap;html=1;" vertex="1" parent="1">
          <mxGeometry x="230" y="420" width="140" height="100" as="geometry" />
        </mxCell>
        <mxCell id="M5peR9HVMpolWC5q5Tus-4" value="Query" style="text;html=1;align=center;verticalAlign=middle;resizable=0;points=[];autosize=1;strokeColor=none;fillColor=none;" vertex="1" parent="1">
          <mxGeometry x="150" y="440" width="60" height="30" as="geometry" />
        </mxCell>
        <mxCell id="M5peR9HVMpolWC5q5Tus-8" value="" style="edgeStyle=orthogonalEdgeStyle;rounded=0;orthogonalLoop=1;jettySize=auto;html=1;entryX=0.5;entryY=0;entryDx=0;entryDy=0;" edge="1" parent="1" source="M5peR9HVMpolWC5q5Tus-6" target="M5peR9HVMpolWC5q5Tus-2">
          <mxGeometry relative="1" as="geometry" />
        </mxCell>
        <mxCell id="M5peR9HVMpolWC5q5Tus-6" value="User Database" style="shape=cylinder3;whiteSpace=wrap;html=1;boundedLbl=1;backgroundOutline=1;size=15;" vertex="1" parent="1">
          <mxGeometry x="180" y="280" width="70" height="80" as="geometry" />
        </mxCell>
        <mxCell id="M5peR9HVMpolWC5q5Tus-9" value="" style="edgeStyle=orthogonalEdgeStyle;rounded=0;orthogonalLoop=1;jettySize=auto;html=1;" edge="1" parent="1" source="M5peR9HVMpolWC5q5Tus-7" target="M5peR9HVMpolWC5q5Tus-2">
          <mxGeometry relative="1" as="geometry" />
        </mxCell>
        <mxCell id="M5peR9HVMpolWC5q5Tus-7" value="Content Database" style="shape=cylinder3;whiteSpace=wrap;html=1;boundedLbl=1;backgroundOutline=1;size=15;" vertex="1" parent="1">
          <mxGeometry x="350" y="280" width="70" height="80" as="geometry" />
        </mxCell>
        <mxCell id="M5peR9HVMpolWC5q5Tus-22" value="" style="edgeStyle=orthogonalEdgeStyle;rounded=0;orthogonalLoop=1;jettySize=auto;html=1;" edge="1" parent="1" source="M5peR9HVMpolWC5q5Tus-10" target="M5peR9HVMpolWC5q5Tus-14">
          <mxGeometry relative="1" as="geometry" />
        </mxCell>
        <mxCell id="M5peR9HVMpolWC5q5Tus-10" value="Prompt Cache" style="rounded=1;whiteSpace=wrap;html=1;" vertex="1" parent="1">
          <mxGeometry x="450" y="440" width="120" height="60" as="geometry" />
        </mxCell>
        <mxCell id="M5peR9HVMpolWC5q5Tus-20" style="edgeStyle=orthogonalEdgeStyle;rounded=0;orthogonalLoop=1;jettySize=auto;html=1;exitX=0.55;exitY=0.95;exitDx=0;exitDy=0;exitPerimeter=0;" edge="1" parent="1" source="M5peR9HVMpolWC5q5Tus-11">
          <mxGeometry relative="1" as="geometry">
            <mxPoint x="300" y="420" as="targetPoint" />
          </mxGeometry>
        </mxCell>
        <mxCell id="M5peR9HVMpolWC5q5Tus-11" value="Internet" style="ellipse;shape=cloud;whiteSpace=wrap;html=1;" vertex="1" parent="1">
          <mxGeometry x="240" y="190" width="120" height="80" as="geometry" />
        </mxCell>
        <mxCell id="M5peR9HVMpolWC5q5Tus-13" value="Model API" style="rounded=1;whiteSpace=wrap;html=1;" vertex="1" parent="1">
          <mxGeometry x="640" y="440" width="140" height="100" as="geometry" />
        </mxCell>
        <mxCell id="M5peR9HVMpolWC5q5Tus-14" value="Generation" style="rounded=1;whiteSpace=wrap;html=1;" vertex="1" parent="1">
          <mxGeometry x="650" y="500" width="120" height="30" as="geometry" />
        </mxCell>
        <mxCell id="M5peR9HVMpolWC5q5Tus-15" value="Input Guardrail" style="rounded=1;whiteSpace=wrap;html=1;" vertex="1" parent="1">
          <mxGeometry x="650" y="400" width="120" height="30" as="geometry" />
        </mxCell>
        <mxCell id="M5peR9HVMpolWC5q5Tus-23" style="edgeStyle=orthogonalEdgeStyle;rounded=0;orthogonalLoop=1;jettySize=auto;html=1;" edge="1" parent="1" source="M5peR9HVMpolWC5q5Tus-16">
          <mxGeometry relative="1" as="geometry">
            <mxPoint x="120" y="520" as="targetPoint" />
          </mxGeometry>
        </mxCell>
        <mxCell id="M5peR9HVMpolWC5q5Tus-16" value="Output Guardrail" style="rounded=1;whiteSpace=wrap;html=1;" vertex="1" parent="1">
          <mxGeometry x="650" y="550" width="120" height="30" as="geometry" />
        </mxCell>
        <mxCell id="M5peR9HVMpolWC5q5Tus-17" value="Gamification" style="rounded=1;whiteSpace=wrap;html=1;" vertex="1" parent="1">
          <mxGeometry x="240" y="580" width="120" height="60" as="geometry" />
        </mxCell>
      </root>
    </mxGraphModel>
  </diagram>
</mxfile>
